<svg width="200" height="200" viewBox="0 0 200 200" fill="none" xmlns="http://www.w3.org/2000/svg"
    style='padding: 0.5rem;'>
    <path d="M172.325 119.214V157.424L200 145.415V106.55L172.325 119.214Z" fill="#7390f4" />
    <path
        d="M98.4308 11.5721L172.325 44.3231V66.8122L200 55.2402V34.9345L123.823 0L98.4308 11.5721Z"
        fill="#7390f4" />
    <path
        d="M48.2168 75.5458V145.415L75.6063 157.424L98.4308 145.415L75.6063 134.498V62.4454L48.2168 75.5458Z"
        fill="#7390f4" />
    <path
        d="M123.823 137.773L148.645 127.511V166.376L75.6063 200L0 166.376V52.4017L75.6063 19.6507L148.645 52.4017V75.5458L123.823 84.4978V65.5022L75.6063 44.3231L25.107 65.5022V154.367L75.6063 176.419L123.823 154.367V137.773Z"
        fill="#7390f4" />
</svg>