<?xml version="1.0" standalone="no"?>
<!DOCTYPE svg PUBLIC "-//W3C//DTD SVG 20010904//EN"
 "http://www.w3.org/TR/2001/REC-SVG-20010904/DTD/svg10.dtd">
<svg version="1.0" xmlns="http://www.w3.org/2000/svg"
 width="700.000000pt" height="700.000000pt" viewBox="0 0 700.000000 700.000000"
 preserveAspectRatio="xMidYMid meet">
<metadata>
Created by potrace 1.14, written by Peter Selinger 2001-2017
</metadata>
<g transform="translate(0.000000,700.000000) scale(0.100000,-0.100000)"
fill="#000000" stroke="none">
<path d="M4255 6964 c-43 -19 -110 -50 -149 -68 -39 -18 -203 -93 -365 -166
l-294 -134 64 -29 c107 -50 141 -65 224 -100 44 -19 105 -46 135 -60 30 -14
352 -157 715 -318 363 -160 822 -364 1020 -452 198 -87 375 -166 392 -173 l33
-14 2 -393 3 -393 235 98 c129 54 246 103 260 109 14 5 125 51 247 102 l223
92 0 356 0 357 -212 97 c-117 54 -238 109 -268 123 -30 14 -86 40 -125 57 -38
18 -149 69 -245 113 -96 44 -206 95 -245 112 -38 18 -95 44 -125 57 -30 14
-111 51 -180 83 -69 31 -147 68 -175 80 -72 33 -372 170 -735 337 -173 80
-324 149 -336 153 -14 6 -43 -2 -99 -26z"/>
<path d="M2510 6254 c-69 -30 -134 -59 -145 -64 -34 -16 -577 -250 -580 -250
-2 0 -32 -13 -67 -29 -35 -16 -112 -50 -173 -76 -60 -26 -134 -58 -163 -71
-29 -13 -55 -24 -57 -24 -2 0 -30 -11 -60 -26 -31 -14 -192 -84 -358 -155
-166 -72 -326 -142 -355 -155 -29 -13 -55 -24 -58 -24 -3 0 -33 -13 -67 -29
-34 -15 -144 -63 -244 -107 l-183 -79 0 -1995 1 -1995 192 -84 c106 -47 219
-97 252 -112 141 -63 462 -206 1100 -489 374 -166 703 -312 730 -325 28 -13
122 -55 211 -94 l161 -71 149 69 c82 37 185 85 229 106 44 20 98 45 120 55 42
18 352 161 490 225 44 20 98 45 120 55 22 10 76 34 120 55 44 20 132 61 195
90 63 29 156 72 205 95 50 23 108 50 130 60 70 30 790 362 794 366 7 6 5 1343
-2 1350 -5 5 -128 -41 -252 -96 -22 -9 -164 -68 -315 -130 -151 -62 -279 -117
-285 -122 -6 -5 -11 -114 -12 -281 0 -150 -1 -279 -2 -288 -1 -8 -20 -24 -43
-34 -100 -44 -148 -65 -233 -105 -49 -23 -162 -75 -250 -115 -154 -70 -922
-422 -1073 -491 -83 -39 -88 -39 -128 -20 -16 8 -63 28 -104 46 -41 18 -97 42
-125 55 -27 12 -113 50 -190 83 -155 67 -378 164 -440 192 -22 10 -68 30 -102
44 -35 14 -86 37 -115 50 -29 13 -138 61 -243 106 -104 45 -217 94 -250 109
-33 15 -81 36 -107 47 l-48 19 0 55 c-5 579 1 3054 7 3059 4 4 35 18 68 30 33
13 78 32 100 42 22 9 81 34 130 54 50 20 104 43 120 50 17 8 102 44 190 80 88
37 179 76 202 86 23 10 44 19 48 19 3 0 24 9 48 20 23 10 157 67 297 125 140
59 269 113 285 120 17 8 84 36 151 63 l121 50 64 -28 c35 -15 84 -36 109 -47
25 -11 155 -69 290 -128 135 -58 269 -118 298 -131 29 -13 55 -24 57 -24 3 0
33 -13 67 -29 35 -16 194 -86 353 -156 160 -69 318 -140 353 -156 35 -16 67
-29 72 -29 22 0 26 -53 25 -356 l-2 -320 51 17 c28 9 125 44 216 77 180 66
415 151 525 190 39 13 72 28 75 32 4 6 5 747 1 796 -1 11 -11 16 -92 53 -49
21 -225 100 -294 131 -22 10 -125 56 -230 103 -214 95 -490 219 -550 247 -22
10 -173 78 -335 150 -409 183 -883 395 -958 430 -34 17 -72 32 -85 34 -13 3
-70 -16 -147 -50z"/>
<path d="M2530 4758 c-58 -27 -141 -67 -185 -88 -112 -53 -334 -159 -507 -242
l-148 -71 0 -56 c-5 -590 1 -2386 7 -2391 4 -4 62 -31 128 -60 66 -28 138 -60
160 -70 22 -10 166 -73 320 -140 154 -67 294 -128 311 -136 28 -14 34 -13 90
17 32 17 106 56 164 86 58 31 137 72 175 93 78 42 252 133 333 175 61 32 69
41 42 50 -11 3 -104 47 -207 97 -188 90 -327 157 -479 229 -45 21 -83 44 -86
51 -2 7 -3 574 -3 1261 1 686 -1 1247 -4 1246 -3 0 -53 -23 -111 -51z"/>
<path d="M6955 3249 c-22 -9 -84 -38 -138 -63 -54 -25 -100 -46 -102 -46 -2 0
-43 -19 -92 -41 -198 -93 -233 -109 -237 -109 -2 0 -55 -24 -117 -54 -63 -29
-142 -66 -176 -81 l-63 -28 0 -668 0 -669 25 10 c14 5 44 18 68 29 23 10 179
78 347 151 168 72 323 140 345 149 22 10 69 31 105 46 36 16 68 31 73 35 4 3
6 310 5 682 l-3 675 -40 -18z"/>
</g>
</svg>
